<svg viewBox="0 0 201 21" fill="none" xmlns="http://www.w3.org/2000/svg">
    <path class="flicker-animation--long" d="m15.116 13.34.913-1.724V21h-.913v-7.66Zm1.826-3.5.913-1.724V21h-.913V9.84Zm1.826-3.449.913-1.737V21h-.913V6.391Zm-6.125 6.518-.52-.95L18.413 0h1.027l-6.797 12.91Zm-1.052-1.99-.533-.964L16.333 0h1.04l-5.782 10.918Zm-6.113.798.913 1.725V21h-.913v-9.283ZM3.652 8.243l.913 1.724V21h-.913V8.243ZM1.826 4.768l.913 1.737V21h-.913V4.768Zm7.38 10.754H8.18L.913 1.737V21H0V0h1.027l8.18 15.522Zm2.068 0h-1.04L2.067 0h1.04l8.167 15.522Zm9.32-13.785-7.266 13.785h-1.04L4.134 0h1.027l7.66 14.558L20.467 0h1.04v21h-.913V1.737Z" fill="#000"/>
    <path d="M40.799 11.278V0h.875v11.278c0 1.231-.486 2.284-1.459 3.16-.972.874-2.138 1.312-3.5 1.312-1.36 0-2.527-.438-3.5-1.313-.972-.874-1.458-1.928-1.458-3.16V0h.875v11.278c0 .988.397 1.835 1.191 2.54.802.705 1.766 1.057 2.892 1.057 1.127 0 2.087-.352 2.88-1.057.803-.705 1.204-1.552 1.204-2.54Zm1.75 0V0h.875v11.278c0 .842-.178 1.649-.535 2.418a6.371 6.371 0 0 1-1.434 1.981 6.84 6.84 0 0 1-2.139 1.337 7.06 7.06 0 0 1-2.6.486 7.06 7.06 0 0 1-2.601-.486 6.84 6.84 0 0 1-2.139-1.337 6.373 6.373 0 0 1-1.434-1.98 5.689 5.689 0 0 1-.535-2.42V0h.875v11.278c0 .964.26 1.86.778 2.685a5.66 5.66 0 0 0 2.127 1.945c.899.478 1.875.717 2.928.717a6.073 6.073 0 0 0 2.917-.717 5.542 5.542 0 0 0 2.127-1.944c.527-.827.79-1.722.79-2.686Zm1.75 0V0h.875v11.278c0 1.077-.227 2.11-.68 3.099a8.032 8.032 0 0 1-1.8 2.54c-.753.713-1.652 1.28-2.697 1.701a8.695 8.695 0 0 1-3.282.632 8.695 8.695 0 0 1-3.28-.632c-1.046-.421-1.945-.988-2.699-1.701a8.196 8.196 0 0 1-1.81-2.54 7.458 7.458 0 0 1-.669-3.1V0h.875v11.278c0 1.28.34 2.467 1.021 3.56a7.439 7.439 0 0 0 2.759 2.59 7.86 7.86 0 0 0 3.803.947c1.37 0 2.634-.316 3.792-.948 1.167-.64 2.09-1.503 2.771-2.588a6.614 6.614 0 0 0 1.02-3.561Zm1.75 0V0h.875v11.278c0 1.75-.458 3.374-1.373 4.873-.916 1.49-2.16 2.674-3.731 3.549-1.564.867-3.265 1.3-5.105 1.3-1.839 0-3.544-.433-5.116-1.3-1.563-.875-2.803-2.058-3.718-3.549a9.179 9.179 0 0 1-1.374-4.873V0h.875v11.278c0 1.19.247 2.333.741 3.427a8.95 8.95 0 0 0 1.994 2.832c.834.785 1.826 1.413 2.977 1.883a9.546 9.546 0 0 0 3.621.705 9.456 9.456 0 0 0 3.61-.705c1.158-.47 2.155-1.098 2.99-1.884a8.95 8.95 0 0 0 1.992-2.831 8.231 8.231 0 0 0 .742-3.427Z" fill="#000"/>
    <path d="M60.359 8.4h-1.412c-.599 0-1.03-.152-1.295-.455-.264-.311-.396-.72-.396-1.225 0-1.12.836-1.68 2.508-1.68 1.571 0 2.753.233 3.547.7l-.677.513c-.544-.249-1.501-.373-2.87-.373-.669 0-1.12.074-1.353.222a.7.7 0 0 0-.339.618c0 .264.063.47.187.618.124.148.354.222.688.222h1.447c1.05 0 1.995.179 2.835.537.848.357 1.544.847 2.088 1.47.545.614.96 1.326 1.249 2.135a7.57 7.57 0 0 1 .431 2.578c0 .747-.105 1.454-.315 2.123a5.95 5.95 0 0 1-.956 1.844c-.42.56-.93 1.046-1.529 1.458-.59.404-1.299.72-2.123.945a9.653 9.653 0 0 1-2.66.35c-1.501 0-2.909-.23-4.223-.688-1.307-.451-2.396-1.085-3.267-1.902l.677-.502c.793.716 1.785 1.272 2.975 1.669 1.197.389 2.477.583 3.838.583 1.066 0 2.026-.152 2.882-.455.863-.311 1.57-.735 2.123-1.272a5.492 5.492 0 0 0 1.283-1.866c.304-.708.455-1.47.455-2.287 0-1.081-.218-2.057-.653-2.928-.436-.88-1.1-1.59-1.995-2.135-.887-.545-1.937-.817-3.15-.817Zm-1.412.84h1.33c1.58 0 2.812.482 3.699 1.447.894.964 1.341 2.162 1.341 3.593 0 1.454-.517 2.66-1.551 3.617-1.035.949-2.485 1.423-4.352 1.423-1.245 0-2.407-.171-3.488-.513-1.082-.343-1.98-.825-2.695-1.447l.653-.525c.638.521 1.439.926 2.403 1.213.973.288 2.015.432 3.127.432 1.641 0 2.893-.393 3.757-1.178.87-.786 1.306-1.793 1.306-3.022 0-1.213-.365-2.217-1.096-3.01-.724-.793-1.762-1.19-3.115-1.19h-1.319c-1.135 0-1.987-.311-2.555-.933-.568-.623-.851-1.431-.851-2.427s.35-1.804 1.05-2.427c.707-.622 1.765-.933 3.173-.933.988 0 1.905.117 2.753.35.848.226 1.548.552 2.1.98l-.665.513C62.98 4.534 61.584 4.2 59.764 4.2c-1.175 0-2.034.233-2.578.7-.537.459-.805 1.066-.805 1.82 0 .762.198 1.373.595 1.832.404.459 1.061.688 1.971.688Zm0 1.68h1.284c1.135 0 1.987.315 2.555.945.567.63.851 1.435.851 2.415 0 .996-.354 1.804-1.061 2.427-.7.622-1.754.933-3.162.933-.988 0-1.91-.113-2.765-.338-.848-.234-1.548-.564-2.1-.992l.665-.513c.972.669 2.372 1.003 4.2 1.003 1.174 0 2.03-.23 2.567-.688.544-.467.816-1.078.816-1.832s-.202-1.361-.606-1.82c-.405-.467-1.062-.7-1.972-.7h-1.272c-1.594 0-2.843-.474-3.745-1.423-.894-.957-1.341-2.163-1.341-3.617 0-1.454.517-2.656 1.551-3.605 1.035-.957 2.485-1.435 4.352-1.435 1.244 0 2.403.171 3.477.513 1.08.343 1.98.825 2.695 1.447l-.654.525c-.638-.521-1.439-.926-2.403-1.213a10.847 10.847 0 0 0-3.115-.432c-1.641 0-2.897.393-3.768 1.178-.864.786-1.295 1.793-1.295 3.022 0 1.221.365 2.228 1.096 3.022.731.785 1.781 1.178 3.15 1.178Zm0 1.68h1.284c.599 0 1.03.156 1.295.467.264.31.396.715.396 1.213 0 1.12-.836 1.68-2.508 1.68-1.579 0-2.765-.233-3.558-.7l.676-.513c.545.249 1.505.373 2.882.373.669 0 1.116-.074 1.342-.222a.694.694 0 0 0 .35-.618c0-.257-.067-.459-.199-.607-.124-.155-.357-.233-.7-.233h-1.26c-1.073 0-2.045-.175-2.916-.525-.864-.35-1.575-.832-2.135-1.447a6.49 6.49 0 0 1-1.272-2.135 7.556 7.556 0 0 1-.443-2.613c0-.747.105-1.454.315-2.123a6.09 6.09 0 0 1 .945-1.844 6.595 6.595 0 0 1 1.528-1.446c.599-.413 1.307-.731 2.123-.957A9.776 9.776 0 0 1 59.764 0c1.501 0 2.905.23 4.212.688 1.306.451 2.395 1.085 3.266 1.902l-.676.502c-.794-.716-1.785-1.268-2.975-1.657C62.4 1.038 61.125.84 59.764.84c-1.066 0-2.03.156-2.893.467-.856.303-1.564.723-2.124 1.26a5.72 5.72 0 0 0-1.283 1.866 5.873 5.873 0 0 0-.443 2.287c0 1.097.221 2.084.665 2.963.443.88 1.12 1.587 2.03 2.124.91.529 1.987.793 3.231.793Z" fill="#000"/>
    <path d="M77.72 0h.913v21h-.913V0Zm-1.826 0h.913v21h-.913V0Zm-1.826 0h.913v21h-.913V0Zm-1.826 0h.913v21h-.913V0Z" fill="#000"/>
    <path d="m98.648 7.443-.688.455a4.475 4.475 0 0 0-1.645-1.47 4.476 4.476 0 0 0-2.181-.548c-1.276 0-2.365.451-3.267 1.353-.902.903-1.354 1.991-1.354 3.267 0 1.276.452 2.364 1.354 3.267.902.902 1.991 1.353 3.266 1.353.786 0 1.513-.183 2.182-.548a4.575 4.575 0 0 0 1.645-1.482l.677.49a5.414 5.414 0 0 1-1.937 1.738 5.324 5.324 0 0 1-2.567.642 5.37 5.37 0 0 1-2.123-.432 5.507 5.507 0 0 1-1.738-1.166 5.51 5.51 0 0 1-1.167-1.739 5.37 5.37 0 0 1-.431-2.123c0-.739.143-1.443.431-2.112a5.475 5.475 0 0 1 1.167-1.75c.49-.49 1.07-.879 1.738-1.166a5.371 5.371 0 0 1 2.123-.432c.926 0 1.785.218 2.579.653a5.374 5.374 0 0 1 1.936 1.75Zm1.389-.956-.7.455a6.225 6.225 0 0 0-2.24-1.995 6.076 6.076 0 0 0-2.963-.747 6.12 6.12 0 0 0-3.162.852 6.291 6.291 0 0 0-2.298 2.286 6.185 6.185 0 0 0-.84 3.162c0 1.143.28 2.197.84 3.162a6.383 6.383 0 0 0 2.298 2.298c.964.56 2.018.84 3.162.84a6.142 6.142 0 0 0 2.975-.747 6.286 6.286 0 0 0 2.24-2.018l.688.478a7.06 7.06 0 0 1-2.544 2.287 6.947 6.947 0 0 1-3.36.84 7 7 0 0 1-3.581-.957 7.075 7.075 0 0 1-2.602-2.601 7 7 0 0 1-.957-3.582 7 7 0 0 1 .957-3.582 7.075 7.075 0 0 1 2.602-2.601 7 7 0 0 1 3.581-.957c1.206 0 2.326.28 3.36.84a7.06 7.06 0 0 1 2.544 2.287Zm1.4-.934-.7.455a7.869 7.869 0 0 0-2.847-2.543 7.742 7.742 0 0 0-3.757-.945 7.85 7.85 0 0 0-3.103.63c-.988.42-1.84.988-2.555 1.703a7.951 7.951 0 0 0-1.691 2.544 7.85 7.85 0 0 0-.63 3.103c0 1.081.21 2.116.63 3.103a8.09 8.09 0 0 0 1.691 2.555 8.092 8.092 0 0 0 2.555 1.692 7.85 7.85 0 0 0 3.103.63c1.354 0 2.61-.315 3.769-.945a8 8 0 0 0 2.835-2.555l.677.502a8.814 8.814 0 0 1-3.139 2.811 8.623 8.623 0 0 1-4.142 1.027 8.654 8.654 0 0 1-4.421-1.178 8.877 8.877 0 0 1-3.22-3.22 8.654 8.654 0 0 1-1.178-4.422c0-1.594.392-3.068 1.178-4.422a8.785 8.785 0 0 1 3.22-3.208 8.588 8.588 0 0 1 4.421-1.19A8.56 8.56 0 0 1 98.3 2.73a8.771 8.771 0 0 1 3.138 2.823Zm1.377-.956-.7.455a9.583 9.583 0 0 0-3.442-3.08A9.418 9.418 0 0 0 94.134.84a9.44 9.44 0 0 0-3.757.77 9.625 9.625 0 0 0-3.08 2.053c-.864.864-1.552 1.894-2.065 3.092a9.48 9.48 0 0 0-.758 3.745c0 1.307.252 2.559.758 3.757a9.784 9.784 0 0 0 2.065 3.08 9.786 9.786 0 0 0 3.08 2.065 9.566 9.566 0 0 0 3.757.758 9.408 9.408 0 0 0 4.55-1.143 9.682 9.682 0 0 0 3.441-3.092l.677.513a10.57 10.57 0 0 1-3.734 3.337A10.29 10.29 0 0 1 94.135 21c-1.424 0-2.785-.28-4.084-.84a10.642 10.642 0 0 1-3.348-2.228c-.933-.941-1.68-2.058-2.24-3.349a10.331 10.331 0 0 1-.829-4.083c0-1.423.277-2.78.829-4.072.56-1.299 1.306-2.415 2.24-3.348A10.541 10.541 0 0 1 90.05.84C91.35.28 92.71 0 94.134 0c1.773 0 3.422.412 4.946 1.237a10.486 10.486 0 0 1 3.734 3.36Z" fill="#000"/>
    <path d="M140.778 13.683c0-.33-.101-.55-.304-.66-.195-.11-.483-.164-.864-.164h-5.89v-.913h5.89c1.388 0 2.083.579 2.083 1.737 0 .65-.191 1.12-.572 1.408-.381.287-.884.43-1.511.43h-5.89v-.912h5.89c.779 0 1.168-.309 1.168-.926ZM133.212 21h-.914V5.478h7.312c.576 0 1.067.178 1.473.533.406.346.61.782.61 1.306 0 .693-.191 1.196-.572 1.51-.381.303-.884.456-1.511.456h-5.89V8.37h5.89c.779 0 1.168-.351 1.168-1.053a.785.785 0 0 0-.33-.672c-.22-.17-.499-.254-.838-.254h-6.398V21Zm.508-10.804h5.89c.838 0 1.545-.25 2.121-.749.584-.507.876-1.217.876-2.13 0-.735-.305-1.378-.914-1.928-.601-.549-1.295-.824-2.083-.824h-8.226V21h-.914V3.652h9.14c1.041 0 1.951.368 2.73 1.103.787.727 1.181 1.581 1.181 2.562 0 .77-.182 1.441-.546 2.016a3.604 3.604 0 0 1-1.448 1.332c1.329.473 1.994 1.437 1.994 2.891 0 1.15-.381 2.071-1.143 2.765-.762.684-1.684 1.027-2.768 1.027h-5.89v-.913h5.89c.838 0 1.545-.25 2.121-.748.584-.508.876-1.218.876-2.13 0-.618-.22-1.163-.661-1.637-.44-.473-1.087-.748-1.942-.824a4.37 4.37 0 0 1-.394.013h-5.89v-.913Zm11.629-2.879c0 1.184-.419 2.253-1.257 3.208.838.93 1.257 1.94 1.257 3.031 0 1.057-.267 2.02-.8 2.892a5.547 5.547 0 0 1-2.107 2.016 5.842 5.842 0 0 1-2.832.71h-5.89v-.913h5.89c1.321 0 2.455-.44 3.403-1.319.948-.888 1.422-2.016 1.422-3.386 0-.49-.127-1.031-.381-1.623-.246-.6-.588-1.057-1.028-1.37.939-.879 1.409-1.961 1.409-3.246 0-1.234-.483-2.304-1.448-3.208-.964-.913-2.09-1.37-3.377-1.37h-10.054V21h-.914V1.826h10.968c1.008 0 1.951.25 2.832.748a5.652 5.652 0 0 1 2.12 2.017c.524.845.787 1.754.787 2.726Zm-.216 3.26c.753-1.007 1.13-2.093 1.13-3.26a5.923 5.923 0 0 0-.914-3.183 6.559 6.559 0 0 0-2.438-2.346 6.56 6.56 0 0 0-3.301-.875h-11.882V21h-.914V0h12.796c1.338 0 2.586.33 3.746.99a7.508 7.508 0 0 1 2.78 2.688 6.805 6.805 0 0 1 1.041 3.639c0 1.243-.351 2.333-1.054 3.272.703.972 1.054 1.961 1.054 2.967 0 1.133-.203 2.173-.609 3.12-.407.938-.957 1.72-1.651 2.346a7.418 7.418 0 0 1-2.399 1.458 8.13 8.13 0 0 1-2.908.52h-5.89v-.913h5.89a6.72 6.72 0 0 0 2.552-.495 6.823 6.823 0 0 0 2.12-1.37 6.393 6.393 0 0 0 1.435-2.079 6.25 6.25 0 0 0 .546-2.587c0-.406-.098-.892-.292-1.458a4.45 4.45 0 0 0-.838-1.522Z" fill="#000"/>
    <path d="M159.41 7.233c-.902.903-1.353 1.991-1.353 3.267 0 1.276.451 2.364 1.353 3.267.902.902 1.991 1.353 3.267 1.353 1.275 0 2.364-.451 3.267-1.353.902-.903 1.353-1.991 1.353-3.267 0-1.276-.451-2.364-1.353-3.267-.903-.902-1.992-1.353-3.267-1.353-1.276 0-2.365.451-3.267 1.353Zm-1.761 5.39a5.367 5.367 0 0 1-.432-2.123c0-.739.144-1.443.432-2.112a5.46 5.46 0 0 1 1.166-1.75 5.51 5.51 0 0 1 1.739-1.166 5.366 5.366 0 0 1 2.123-.432c.739 0 1.443.144 2.112.432.676.287 1.26.676 1.75 1.166.49.49.878 1.074 1.166 1.75.288.67.432 1.373.432 2.112a5.511 5.511 0 0 1-1.598 3.862 5.48 5.48 0 0 1-1.75 1.166 5.289 5.289 0 0 1-2.112.432 5.51 5.51 0 0 1-3.862-1.598 5.494 5.494 0 0 1-1.166-1.739Zm-.432-5.285a6.185 6.185 0 0 0-.84 3.162c0 1.143.28 2.197.84 3.162a6.387 6.387 0 0 0 2.298 2.298c.965.56 2.019.84 3.162.84 1.143 0 2.197-.28 3.162-.84a6.293 6.293 0 0 0 2.286-2.298 6.119 6.119 0 0 0 .852-3.162 6.118 6.118 0 0 0-.852-3.162 6.203 6.203 0 0 0-2.286-2.286 6.124 6.124 0 0 0-3.162-.852 6.124 6.124 0 0 0-3.162.852 6.295 6.295 0 0 0-2.298 2.286Zm-.723 6.744a6.998 6.998 0 0 1-.957-3.582c0-1.291.319-2.485.957-3.582a7.072 7.072 0 0 1 2.601-2.601 7.002 7.002 0 0 1 3.582-.957c1.291 0 2.485.319 3.582.957a7.08 7.08 0 0 1 2.601 2.601 6.998 6.998 0 0 1 .957 3.582 6.998 6.998 0 0 1-.957 3.582 7.08 7.08 0 0 1-2.601 2.601 7.002 7.002 0 0 1-3.582.957 7.002 7.002 0 0 1-3.582-.957 7.072 7.072 0 0 1-2.601-2.601Zm-1.167-6.685a7.85 7.85 0 0 0-.63 3.103c0 1.081.21 2.116.63 3.103.42.988.984 1.84 1.692 2.555a8.083 8.083 0 0 0 2.555 1.692c.987.42 2.022.63 3.103.63a7.85 7.85 0 0 0 3.103-.63 7.954 7.954 0 0 0 2.544-1.692 7.999 7.999 0 0 0 1.703-2.555 7.85 7.85 0 0 0 .63-3.103 7.85 7.85 0 0 0-.63-3.103 7.863 7.863 0 0 0-1.703-2.544 7.858 7.858 0 0 0-2.544-1.703 7.85 7.85 0 0 0-3.103-.63c-1.081 0-2.116.21-3.103.63-.988.42-1.84.988-2.555 1.703a7.949 7.949 0 0 0-1.692 2.544Zm-.292 7.525a8.66 8.66 0 0 1-1.178-4.422 8.66 8.66 0 0 1 1.178-4.422 8.794 8.794 0 0 1 3.22-3.208 8.59 8.59 0 0 1 4.422-1.19c1.594 0 3.068.397 4.422 1.19a8.702 8.702 0 0 1 3.208 3.208 8.592 8.592 0 0 1 1.19 4.422 8.592 8.592 0 0 1-1.19 4.422 8.792 8.792 0 0 1-3.208 3.22 8.658 8.658 0 0 1-4.422 1.178 8.656 8.656 0 0 1-4.422-1.178 8.885 8.885 0 0 1-3.22-3.22Zm-1.26-8.167a9.49 9.49 0 0 0-.758 3.745c0 1.307.253 2.559.758 3.757a9.802 9.802 0 0 0 2.065 3.08 9.794 9.794 0 0 0 3.08 2.065 9.567 9.567 0 0 0 3.757.758 9.48 9.48 0 0 0 3.745-.758c1.198-.514 2.228-1.202 3.092-2.065a9.638 9.638 0 0 0 2.053-3.08c.513-1.198.77-2.45.77-3.757a9.362 9.362 0 0 0-.77-3.745c-.506-1.198-1.19-2.228-2.053-3.092a9.6 9.6 0 0 0-3.092-2.053 9.356 9.356 0 0 0-3.745-.77 9.441 9.441 0 0 0-3.757.77 9.633 9.633 0 0 0-3.08 2.053c-.863.864-1.551 1.894-2.065 3.092Zm-.77 7.828a10.334 10.334 0 0 1-.828-4.083c0-1.423.276-2.78.828-4.072.56-1.299 1.307-2.415 2.24-3.348a10.534 10.534 0 0 1 3.349-2.24c1.298-.56 2.66-.84 4.083-.84s2.78.28 4.072.84c1.298.552 2.415 1.299 3.348 2.24.941.933 1.688 2.05 2.24 3.348.56 1.291.84 2.649.84 4.072s-.28 2.784-.84 4.083a10.54 10.54 0 0 1-2.24 3.349c-.933.933-2.05 1.676-3.348 2.228a10.13 10.13 0 0 1-4.072.84c-1.423 0-2.785-.28-4.083-.84a10.634 10.634 0 0 1-3.349-2.228 10.812 10.812 0 0 1-2.24-3.349Z" fill="#000"/>
    <path d="m185.337 9.65-.546.863L178.177 0h1.079l6.081 9.65Zm4.507 6.86.533-.861L193.754 21h-1.079l-2.831-4.49Zm-3.428-8.559-.546.85L180.335 0h1.066l5.015 7.951Zm4.507 6.848.533-.862L195.912 21h-1.079l-3.91-6.201Zm-3.428-8.573-.533.85L182.493 0h1.079l3.923 6.226Zm4.52 6.848.533-.862L198.083 21h-1.079l-4.989-7.926Zm-3.441-8.56-.533.863L184.651 0h1.08l2.843 4.514Zm4.507 6.848.533-.862 6.627 10.5h-1.079l-6.081-9.638ZM198.527 0h1.08l-13.229 21h-1.079l13.228-21Zm-2.145 0h1.066L184.22 21h-1.079l13.241-21Zm-2.171 0h1.079l-13.241 21h-1.079l13.241-21Zm-2.158 0h1.079l-13.241 21h-1.079l13.241-21Z" fill="#000"/>
</svg>
