<svg width="16" height="16" viewBox="0 0 16 16" fill="none" xmlns="http://www.w3.org/2000/svg">
<path d="M11.2453 10.1643L11.9245 8.85024V16H11.2453V10.1643ZM12.6038 7.49758L13.283 6.18357V16H12.6038V7.49758ZM13.9623 4.86957L14.6415 3.54589V16H13.9623V4.86957ZM9.40566 9.83575L9.01887 9.11111L13.6981 0H14.4623L9.40566 9.83575ZM8.62264 8.31884L8.22641 7.58454L12.1509 0H12.9245L8.62264 8.31884ZM4.07547 8.92754L4.75472 10.2415V16H4.07547V8.92754ZM2.71698 6.28019L3.39623 7.5942V16H2.71698V6.28019ZM1.35849 3.63285L2.03774 4.95652V16H1.35849V3.63285ZM6.84906 11.8261H6.08491L0.679245 1.32367V16H0V0H0.764151L6.84906 11.8261ZM8.38679 11.8261H7.61321L1.53774 0H2.31132L8.38679 11.8261ZM15.3208 1.32367L9.91509 11.8261H9.14151L3.07547 0H3.83962L9.53774 11.0918L15.2264 0H16V16H15.3208V1.32367Z" fill="#EA15AF"/>
</svg>
